<svg xmlns="http://www.w3.org/2000/svg" viewBox="0 0 327.62 132.37" xmlns:v="https://vecta.io/nano"><style><![CDATA[.E{fill:#f09321}.F{fill:#2a8dc8}.G{fill:#298dc8}.H{fill:#111010}]]></style><path d="M117.57 105.5c-11.58-16.12-.17 1-1 1-38.63 0-58.2 4.78-96.82 4.81-.82 0-1-.16-1-1 0-6-18.42 8.26-18.42 2.27.46.85.08 1.93.32 2.84a21 21 0 0 0 20.23 15.69h58.05 17.35a21 21 0 0 0 20.88-17.26 20.24 20.24 0 0 0 .36-4q0-25.21 0-50.41a3 3 0 0 0-.65-2c-.93-1.19-1.78-2.45-2.65-3.69-.16-.24-.47-.46-.24-.9 1.28.93 2.08 2.32 3.46 3.47 0-2.36.4-4.33-1.51-6.2-3.92-3.83-7.52-8-11.26-12-.26-.28-.56-.72-1-.45s-.09.65 0 1l.62 4.62a5.94 5.94 0 0 0 1.06 2.85l7.76 11.45 1.51 2.15c.24.36.53.87.13 1.19s-.73-.2-1-.45l-6.34-6c-.34-.32-.58-.78-1.26-.82a3.88 3.88 0 0 0 1 1.73q4.2 6.39 8.4 12.78c.27.4.86 1 .43 1.32-.61.47-1-.25-1.41-.7q-10-11.32-20-22.65L77.4 26.55l-11.59-13c-.63-.71-1.22-1.47-1.84-2.19-.17-.2-.31-.57-.64-.41s-.11.5 0 .75L65 16.53q1.72 5.09 3.44 10.17 1.41 4.17 2.81 8.36a.89.89 0 0 1 0 .76c-.45 0-.76-.3-1.08-.55-2.68-2.07-5.54-3.91-8.1-6.13a1 1 0 0 0-1.39 0l-5.24 4.37a3.73 3.73 0 0 0-1 1.62c-.81 2.12-1.63 4.25-2.34 6.4a4.2 4.2 0 0 1-1.85 2.53A5.54 5.54 0 0 0 47.46 48c-.26 1.25-.76 2.44-1.13 3.66-.18.62-.39.92-1 .37q-4.92-4.26-9.88-8.47l-8.25-6.88c-.85-.71-1.68-1.45-2.51-2.18-.29-.24-.65-.49-1-.27s0 .58.11.84l3.5 7.85c.22.46.47.92.17 1.33s-.83.15-1.23.06c-.81-.18-1.61-.46-2.42-.66a.63.63 0 0 0-.73.22c-.13.24.11.44.25.63q4 5.28 8 10.55l.36.48c.22.29.51.69.29 1s-.75 0-1.07-.17Q25.57 53 20.21 49.64c-.68-.42-1.35-.84-2-1.29s-1.24-.29-1.37.54l-1.39 9.57a1.67 1.67 0 0 0 .39 1.11q4.87 7.79 9.74 15.58c.33.54.92 1 .65 2L2.93 54.91c-.35.54-.1.83 0 1.14l3.43 7c.32.66 1 1.64.4 2.06s-1-.69-1.5-1.19L0 58.08V46.83a6.55 6.55 0 0 1 2.35 1.27c1.12.82.91-.28 1.73-1.41-.18-7.4 3.7-4.88 5.87-6.4-.12.17 5.58-7.82 8.44-11.89a1.4 1.4 0 0 1 2-.61c1.95.8 4 1.46 5.95 2.16.53.19 1 .33 1.5-.22l15.45-16.94c1-1.06 1.79-2.37 3.18-3q6.69-3 13.39-6a1.93 1.93 0 0 1 2.46.49l10.41 10.88q7.2 7.56 14.38 15.13l9.71 10.17a33.61 33.61 0 0 0 3.7 3.62 3.59 3.59 0 0 0-.67-1.77l-1.67-2.62a1.26 1.26 0 0 1 0-1.56l3.41-4.46c.51-.66 1.07-.58 1.64-.11l4.14 3.43 10.2 8.39v-2.8a3.06 3.06 0 0 0-.67-1.77c-.78-1.29-2.13-1.72-3.18-2.58L105 31c-2-1.64-5.21 2.43-6.8 4.51-.93 1.22-.87-1.36-1.8-.13-1.54-1.43-2.68-3.18-4.15-4.49-1.73-1.54-3-3.42-4.77-5a94 94 0 0 1-6.91-7.06c-2.13-2.35-4.44-4.54-6.64-6.83L64.5 2a4.74 4.74 0 0 0-6.18-1c-2.94 1.6-6.12 2.64-9.08 4.18-1.93 1-4.12 1.47-5.8 3-3 2.71-5.39 5.94-8.16 8.84s-5.46 5.91-8.18 8.87a1.4 1.4 0 0 1-1.77.43c-1.28-.53-2.63-.92-3.92-1.41-2.33-.9-3.86-.53-5.3 1.46l-12 16.68c-1.23 1.72-1.24 1.71-3 .61-.37-.23-.31.7-.68.48C2 43.87 4 51.93 5.6 42.57c.13-.81.55-.28 1-1 8.9-14.39 12.91-17.77 21.25-14.11 4.59 2 19-27.42 33.54-24.76 5.1.93 16.55 17.46 24.68 22.68 2.81 1.8 8.18 10.32 10.25 10.62.74.12 2.76-3.61 6-3.23 5.79.69 14 6 14.68 9.53 2.1 10-.53-2.67.59 3" fill="#fcfdfe"/><path d="M0 112.68v-54.6l5.31 5.81c.45.5 1 1.56 1.5 1.19s-.08-1.4-.4-2.06l-3.43-7c-.15-.31-.4-.6 0-1.14l23.24 22.24c.27-1-.32-1.43-.65-2q-4.84-7.8-9.74-15.58a1.67 1.67 0 0 1-.39-1.11l1.39-9.57c.13-.83.63-1 1.37-.54l2 1.29Q25.57 53 31 56.32c.32.21.76.53 1.07.17s-.07-.67-.29-1l-.36-.48q-4-5.26-8-10.55c-.14-.19-.38-.39-.25-.63a.63.63 0 0 1 .73-.22l2.42.66c.4.09.93.36 1.23-.06s.05-.87-.17-1.33l-3.5-7.85c-.12-.26-.46-.61-.11-.84s.68 0 1 .27l2.51 2.18 8.25 6.88q5 4.21 9.88 8.47c.64.55.85.25 1-.37l1.13-3.66a5.54 5.54 0 0 1 2.8-3.94 4.2 4.2 0 0 0 1.85-2.53l2.34-6.4a3.73 3.73 0 0 1 1-1.62l5.24-4.37a1 1 0 0 1 1.39 0c2.56 2.22 5.42 4.06 8.1 6.13.32.25.63.58 1.08.55a.89.89 0 0 0 0-.76q-1.4-4.18-2.81-8.36-1.85-5.04-3.53-10.13l-1.7-4.86c-.08-.25-.3-.58 0-.75s.47.21.64.41l1.84 2.19 11.59 13 17.15 19.57q10 11.34 20 22.65c.4.45.8 1.17 1.41.7.43-.33-.16-.92-.43-1.32q-4.19-6.41-8.4-12.78a3.88 3.88 0 0 1-1-1.73c.68 0 .92.5 1.26.82l6.34 6c.27.25.64.74 1 .45s.11-.83-.13-1.19c-.48-.73-1-1.43-1.51-2.15l-7.76-11.45a5.94 5.94 0 0 1-1.06-2.85c-.17-1.54-.41-3.08-.62-4.62 0-.34-.3-.78 0-1s.73.17 1 .45c3.74 4 7.34 8.2 11.26 12 1.91 1.87 1.62 3.88 1.59 6.25-1.38-1.16-2.26-2.59-3.54-3.52-.23.44.08.66.24.9.87 1.24 1.72 2.5 2.65 3.69a3 3 0 0 1 .65 2q0 25.2 0 50.41a20.24 20.24 0 0 1-.36 4 21 21 0 0 1-20.88 17.26H78.88h-58A21 21 0 0 1 .69 115.42a12.37 12.37 0 0 0-.69-2.74zm113.41-60.27c.08.08.11.32.28.17s0-.24-.09-.35-.21-.17-.23-.15-.07.23.04.33zM0 43l1.13.67c1.75 1.1 1.76 1.11 3-.61l12-16.68c1.44-2 3-2.36 5.3-1.46l3.92 1.41a1.4 1.4 0 0 0 1.77-.43l8.18-8.87c2.77-2.92 5.17-6.13 8.16-8.84 1.68-1.52 3.87-2 5.8-3 3-1.54 6.14-2.58 9.08-4.18a4.74 4.74 0 0 1 6.18 1l9.43 10c2.2 2.29 4.51 4.48 6.64 6.83a94 94 0 0 0 6.91 7.06c1.72 1.54 3 3.42 4.77 5 1.47 1.31 2.61 3.06 4.15 4.49l2.79-3.69A3.75 3.75 0 0 1 105 31l8.72 7.23c1.05.86 2.4 1.29 3.18 2.58a3.06 3.06 0 0 1 .67 1.77v2.8l-10.2-8.39-4.14-3.43c-.57-.47-1.13-.55-1.64.11l-3.41 4.46a1.26 1.26 0 0 0 0 1.56l1.67 2.62a3.59 3.59 0 0 1 .67 1.77 33.61 33.61 0 0 1-3.7-3.62l-9.71-10.17q-7.2-7.56-14.38-15.13L62.32 4.28a1.93 1.93 0 0 0-2.46-.49q-6.69 3-13.39 6c-1.39.63-2.2 1.94-3.18 3L27.82 29.73c-.49.55-1 .41-1.5.22-2-.7-4-1.35-5.95-2.16a1.4 1.4 0 0 0-2 .61L9.93 40.29Q7.28 44 4.58 47.75c-.82 1.13-1.11 1.17-2.23.35A6.55 6.55 0 0 0 0 46.83z" class="F"/><g fill="#fcfdfe"><path d="M113.41,52.41c-.11-.1-.2-.21,0-.33s.15.09.23.15Z"/><path d="M113.6,52.23c.07.11.25.22.09.35s-.2-.09-.28-.17Z"/></g><path d="M58.16 132.16H20.49a21.27 21.27 0 0 1-14.18-5.27c-.66-.56-.73-1-.2-1.66a4.86 4.86 0 0 1 2-1.7c2.33-.85 3.68-3.09 6-4 .76-.28.91-1.26 1.16-2a16.5 16.5 0 0 1 4-6.85 132.53 132.53 0 0 1 11.65-10.3A36.46 36.46 0 0 1 42.73 94c.85-.25.56-.81.52-1.33-.2-3.06-.47-6.12.32-9.14a3.5 3.5 0 0 1 1.6-2.42 1.17 1.17 0 0 0 .52-1.46A3.55 3.55 0 0 1 47 75.69c.82-.69.91-1.94 1.23-2.94l2.43-6.87c.14-.33.31-.65-.1-.95-1.7-1.25-2-3.06-1.93-5a88.34 88.34 0 0 1 .24-9.06 3.75 3.75 0 0 1 1.59-3 3.07 3.07 0 0 0 1.25-1.7l2.51-6.84a3.43 3.43 0 0 1 6-1.2 7.61 7.61 0 0 1 2.22 4.47c.25 1.87.56 4 2.43 5.24 1.35.92 1.63 2.35 1.85 3.94.43 3-.26 6-.09 9a3.91 3.91 0 0 1-1.24 3A1 1 0 0 0 65 65c1.4 4 2.68 8 4.25 11.82.61 1.52 1.25 3.07 2 4.55a1.48 1.48 0 0 0 .4.43 4.59 4.59 0 0 1 1.44 3.55q0 4 0 8c0 .69.11 1.25.9 1.48a28 28 0 0 1 7.26 3.81 55.55 55.55 0 0 1 9.66 7.73 45.44 45.44 0 0 1 7.38 8.92 12.25 12.25 0 0 1 1.31 3.2 1.75 1.75 0 0 0 1 1.34c1.15.53 2.36 1 2.93 2.32a.91.91 0 0 0 .6.35c2.31.34 3.4 2.21 4.76 3.74.57.64.5 1.07-.23 1.61a21.37 21.37 0 0 1-13 4.28z" fill="#fefefe"/><path d="M97.45 122.32a15.22 15.22 0 0 1 2.67 1c.38.21.75.56.68.85-.3 1.13.54 1.12 1.16 1.19a6.21 6.21 0 0 1 4.24 2.91c.52.69.5 1.09-.35 1.53a20.73 20.73 0 0 1-9.62 2.51q-24.35 0-48.7 0H20.61a21 21 0 0 1-11.44-3.21c-1-.63-1.11-1.09-.23-1.9a7.11 7.11 0 0 1 4.05-2c.34 0 .82.09.72-.49-.24-1.3.8-1.52 1.59-1.89a10.32 10.32 0 0 1 1.78-.46c.66-.23 1.13-.81 1.89-.87s1 .14.71.9a4.71 4.71 0 0 1 3.94-.43c1.29.42 2.69.06 4 .38a.47.47 0 0 0 .56-.36c.22-.79.75-.56 1.37-.61 1.82-.15 3.49.64 5.29.59 1 0 2.09.29 3.13-.12a.65.65 0 0 1 .47 0 2.19 2.19 0 0 0 2.54 0c.66-.4 1.92 0 2.92-.06a41.75 41.75 0 0 0 4.6.08c.88-.11 1.86.5 2.7-.28.26-.24.67.12 1 .35s.74.59 1.18.42a9.77 9.77 0 0 1 3.79-.29 41.34 41.34 0 0 0 4.6-.17 12 12 0 0 1 4 .63c.19 0 .46.16.58 0 1.32-1.32 2.8-.24 4.18-.24A6.15 6.15 0 0 0 73 122a2.39 2.39 0 0 1 2.48.27c1 .73 2.11.22 3-.18s1.94-1.26 2.88.09c.15.21.43.14.67.08a12 12 0 0 1 4.62.09 4.06 4.06 0 0 0 2.41-.32c.81-.37 1.82 0 2.73-.14 1.29-.26 2.54.53 3.86.08.59-.16 1.19.37 1.8.35z" fill="#f48221"/><path d="M97.45 122.32c-.38.28-.75.67-1.19.08-.05-.06-.16-.16-.18-.15-1 .79-2-.16-3-.07a6.37 6.37 0 0 1-3.33-.09c-.19-.08-.26-.07-.37.09a2 2 0 0 1-2.27.55c-1.35-.38-2.73-.12-4.06-.4-.35-.07-.59.16-.87.31-.43.25-.94.24-1.1-.27-.41-1.3-1.33-.73-1.74-.32-.94 1-2.19.51-3.21 1-.25.12-.52-.06-.69-.34a1.38 1.38 0 0 0-1.9-.5c-1.84 1-3.64.39-5.45.08-.53-.09-.9-.19-1.15.4a.59.59 0 0 1-.9.29c-.8-.52-2 0-2.61-.93a.25.25 0 0 0-.21-.07c-1.56 1.07-3.49-.33-5 .75-.72-.94-1.81.6-2.68-.45-.3-.36-1.25.48-2 .48-.52 0-.94 0-1.27-.39-.74-1-1.31-.55-1.88.27-.38-.54-.76-1.25-1.4-.28a.63.63 0 0 1-.28.18c-.58-.8-1.33.08-1.79-.12-1.56-.66-3.1-.08-4.63-.21-.76-.06-1.39-.25-1.89.58-.22.38-.67.2-1-.12a1.56 1.56 0 0 0-2.15-.22 1.26 1.26 0 0 1-1.37 0c-.47-.32-.86-.17-1.31-.19-1.89-.11-3.72-.72-5.74-.58 0 1.2-.71 1-1.92.84l-4.73-.59c-.64-.13-1.42.39-2.13.64-.32.1-.59.39-1 .3-.16-.64.73-.5.63-1.12a2.91 2.91 0 0 0-1.79.48c-.21.14-.4.44-.7.12a32.82 32.82 0 0 1 2.66-6.74c1.31.21 2.6-.24 4 .1.75.19 1.67-.27 2.55-.27a4.6 4.6 0 0 1 1.53.13c.83.27 1.61.49 2.33-.23a.38.38 0 0 1 .33-.11c1.66.46 3.38-.24 5 .4a4 4 0 0 0 3.54-.08c1.09-.59 2.42 0 3.61.19a7 7 0 0 0 2.95 0 10.75 10.75 0 0 1 6.08.18c.2.06.41.14.57 0 1.23-1 2.93-.1 4.21-1 .14-.09.39 0 .57.11a6.06 6.06 0 0 0 5 .4 1 1 0 0 1 .7.09c.18.08.42.29.54.22 1.56-.91 3.14.22 4.75-.09 1.24-.24 2.6-.79 3.9-.08 1.6-.77 3.17.4 4.65.16s3 .08 4.48-.35a.6.6 0 0 1 .57.09c.58.57 1.15.33 1.75 0a1.5 1.5 0 0 1 1.16-.08c2 .67 4.11 1 6.12-.13a1.24 1.24 0 0 1 1.15-.09 17.52 17.52 0 0 0 2.85.82 8.67 8.67 0 0 1 1.82 4.01c.23.76.59 1.53.89 2.32z" fill="#f58420"/><path d="M94.64 116.08c-1 .55-1.77-.16-2.59-.4a1.72 1.72 0 0 0-1.57.11c-.81.41-1.73 1-2.84.45-.66-.35-1.44.08-2.17.13-.22 0-.5.27-.61-.05-.39-1.12-1.06-.64-1.72-.35s-1 .63-1.61-.16-.93.21-1.31.87c-.19-.78-.43-.82-1.11-.83-1.45 0-2.89.71-4.38 0-.71-.35-1.64-.68-2.37.18a.37.37 0 0 1-.34 0c-1.74-1.11-3.54.24-5.35-.1-.68-.13-1.52.65-2-.52 0-.11-.34 0-.39.13-.38 1.17-1 .66-1.65.27-.16-.1-.45-.23-.52-.17-1.27 1.16-2.76-.1-4.09.39-.36.13-.5-.33-.74-.5-.46-.33-.85-.61-1.46-.06s-1.22.19-1.85.24c-.19 0-.48-.19-.57-.11-1.63 1.41-3.24 0-4.85 0a13.56 13.56 0 0 0-2.69.41 11.88 11.88 0 0 1-3.42 0c-1.35-.16-2.88-1-4.35.3-.62.55-1.85-.09-2.75-.36a6.19 6.19 0 0 0-3.61-.14c-.34.1-.46.12-.67-.14-.38-.48-.77-.3-1.1.08-.53.61-1 .53-1.76.25a5.34 5.34 0 0 0-3.95.07c-.15.06-.38.21-.43.17-1.22-1.16-2.87.43-4.1-.64a19.86 19.86 0 0 1 5.46-5.76 3.74 3.74 0 0 1 1.88-.06 3.51 3.51 0 0 0 2.77-.33 1.35 1.35 0 0 1 1.48 0 3.12 3.12 0 0 0 1.73.35c1.17 0 2.33-.51 3.52 0 .3.14.69-.1 1-.23s.74-.29 1 0c.83.94 1.82.61 2.77.37a5.29 5.29 0 0 1 3-.08 9.23 9.23 0 0 0 3.55 0 24 24 0 0 1 4.72-.18 6 6 0 0 1 2.65.5.48.48 0 0 0 .57-.07c.91-.85 2.12-.49 3.17-.74a5.3 5.3 0 0 1 2.06.31 6.73 6.73 0 0 0 4-.06 1.2 1.2 0 0 1 .9-.19c.62.23 1.44-.12 1.72 0 .9.38 2.12-1 2.7.53a.33.33 0 0 0 .43.13c1.75-.81 3.65 0 5.44-.53a2.49 2.49 0 0 1 1.51.29 5 5 0 0 0 3.74.18c2.24-.83 4.44-.43 6.64.06.46.1 1-.12 1.38.25.86 0 1 .83 1.42 1.26a16.3 16.3 0 0 1 3.71 4.48z" fill="#f68520"/><path d="M89.62 110.34c-1.18.56-2.26-.26-3.38-.37s-2.07.2-3.12-.2c-.43-.16-1.06.53-1.71.66a6.15 6.15 0 0 1-3.92-.4c-.51-.23-1.18-.52-1.72.1-.3.33-.6.07-.87-.07a1.57 1.57 0 0 0-1.49 0c-.27.14-.56.37-.87.09-.48-.44-.84-.2-1.24.16s-.92.45-1.28-.17c-.14-.24.32-.81-.4-.73s0 .64-.32.85c-.39 0-.53-.32-.77-.51l-.39-.28c-.77 1.19-2.15-.1-2.45.25-.66.8-1.38.45-2 .46-.88 0-2.06.43-2.57 0a2.08 2.08 0 0 0-2-.51c-1.05.29-2.32-.24-3.18.83-.2.25-.51.2-.84 0-.62-.42-1.22-1.13-2.08-.23-.33.35-.61-.36-1-.38a32 32 0 0 0-3.66.23c-1.54.06-3.12.67-4.66-.13a2.05 2.05 0 0 0-1.83.22 11.14 11.14 0 0 1-2.15.37c-.21.06-.63 0-.68-.06-.58-1.3-1.44-.45-2.21-.32-.15 0-.37.14-.44.07-1-.88-2.06-.07-3.09-.13-.74-.05-1.54.11-2.16-.46a.8.8 0 0 0-1.09 0 3.21 3.21 0 0 1-3.4.27c-.51-.19-1 .5-1.43-.1 1-1.42 2.48-2.31 3.7-3.48a11.31 11.31 0 0 1 3-2.27c3.07-.37 6.18.23 9.24-.44.19 0 .45-.09.58 0 1 .79 2.26.43 3.31.91.75.35 1.4-.14 2.06-.35a2.94 2.94 0 0 1 2.51 0 1.9 1.9 0 0 0 1.94-.19 1.63 1.63 0 0 1 1.58-.19 5.39 5.39 0 0 0 3.37.3c1.42-.42 2.84.33 4.27.16.19 0 .43.09.59 0 1.45-1 3-.21 4.46-.19a4 4 0 0 0 1.42-.1 2.77 2.77 0 0 1 2.73.07c.09.07.26.13.34.08 1.46-.93 2.92.36 4.39 0 1.73-.44 3.52.11 5.28-.29 1-.23 2.09.38 3.17.24l5.34 4.72a4.48 4.48 0 0 1 1.12 1.51z" fill="#f68720"/><path d="M83.14 104.1a2.13 2.13 0 0 1-2.19.1 1.32 1.32 0 0 0-1.35 0 2.32 2.32 0 0 1-2.14.07c-1.1-.35-2.09.51-3.25.22a13.8 13.8 0 0 1-1.7-.19c-.58-.19-1.09-.53-1.67.16-.35.41-.92.06-1.3-.22a1.41 1.41 0 0 0-1.65-.11 2.73 2.73 0 0 1-2.27.21c-.87-.35-1.9.4-2.7-.41-.05-.05-.28 0-.33.07-.82 1.15-2.16.23-3.13.79a.37.37 0 0 1-.34 0c-1.18-1-2.41-.24-3.61-.11a7.8 7.8 0 0 1-2.49-.53c-.27-.06-.57-.37-.78-.19-1.19 1-2.32.8-3.68.27-.6-.24-1.57.37-2.34.66a1.37 1.37 0 0 1-1.65-.17 1.08 1.08 0 0 0-.48-.26c-.86 1-1.36 0-1.94-.36-.88-.55-1.65.16-2.5.14l-5.59.07c-.44 0-.8-.16-1.21.15s-.74.07-1-.35a20.3 20.3 0 0 1 4.8-3.49l4.71-2.57a17 17 0 0 1 5.09-1.12c1.92-.24 3.89.68 5.78-.26a1.18 1.18 0 0 1 1.15 0 4 4 0 0 0 2.53.42c1.77-.16 3.57.13 5.3-.47a.92.92 0 0 1 .59 0 14.14 14.14 0 0 0 6.9.28 1.12 1.12 0 0 1 1 .27 21.92 21.92 0 0 1 8.07 3.41l5.37 3.52z" fill="#f68a1f"/><path d="M46.31 90.49c0-.73-.31-1.5.29-2.16.21-.23-.12-.3-.18-.46-.45-1.27.08-2.46.36-3.66 0-.06.12-.15.16-.14 1.85.48 1.3-1.19 1.76-2h2.75c1.37-.11 2.84.23 4-.08a8.68 8.68 0 0 1 5.08.14 1 1 0 0 0 1-.19 2.94 2.94 0 0 1 2.93-.39 5.64 5.64 0 0 0 2.91.25c1.62.42.36 1.71.75 2.51 1.37-.24 1.85.15 1.85 1.53a38.46 38.46 0 0 1 0 5.78c-.39 0-.4-.33-.5-.57s-.23-.53-.49-.41a2.33 2.33 0 0 1-2.36-.26.3.3 0 0 0-.34 0c-1.31 1.2-2.8.08-4.15.35-1.6.31-3.16-.6-4.67-.11s-3.27-.06-4.82.57a1.33 1.33 0 0 1-.94-.06 7.73 7.73 0 0 0-3.17-.29 3.52 3.52 0 0 1-2.22-.35z" fill="#f78e1f"/><path d="M46.31 90.49c1.51 0 3.19-.29 4.5.15 1.8.62 3.39-.32 5.11 0a16 16 0 0 0 2.94-.32c.51 0 1-.2 1.51.1s.89.92 1.08-.19c0 0 .26-.12.28-.08.54.66 1.41.06 1.74.26a1.77 1.77 0 0 0 2.53-.32.37.37 0 0 1 .34-.06c.92.42 1.73.85 2.87.22.46-.26.29 1 .69 1.43.11 1 0 2.11.17 3.17.24 1.53-.88 1.46-2.23 1.32.81.51 1.82-.08 1.88 1l-5.28.42c-.82.13-1.3-.42-2-.54a3.86 3.86 0 0 0-1.82.07c-1.6.45-3.26.2-4.9.29-.82 0-1.69.32-2.42-.44a.74.74 0 0 0-1-.07c-1.16 1.07-2.5.27-3.75.35-.54 0-1.07-.22-1.55.26-.22.21-.28.15-.56-.6.42-.27.65-.86 1.31-.7.21 0 .37-.06.37-.33 0-.49-.28-.14-.45-.16a1.29 1.29 0 0 1-1.16-1.38c.07-1.29-.43-2.55-.2-3.85z" fill="#f68c1f"/><path d="M63.46 51.72c.54 3.07-.08 6.14 0 9.21 0 .4 0 .86-.4 1-1.94.92-1.78 2.44-1.22 4.1-.63.08-.62-.49-.83-.82-.56-.89-1.08-.91-1.66 0s-1.16 1-1.77.09-.94-.76-1.37 0c-.54.91-1.28.86-2.11.54a2.25 2.25 0 0 1 .06-.36c.55-1.71.55-1.7-1.09-2.35-.86-.35-1-.94-1.19-1.91-.3-1.7.23-3.33-.09-5s.14-3.15.25-4.72c.35-.29.67 0 1 .06a12 12 0 0 0 3.12.07 32.65 32.65 0 0 1 5.66-.6 2.83 2.83 0 0 1 1.64.69z" fill="#f8951e"/><path d="M67.36 81.86c-.91 1.14-2 .29-2.86 0a2.79 2.79 0 0 0-3.13.64c-.24.25-.48.35-.71.13-.91-.87-2.08-.54-3.13-.7-.41-.06-.86-.27-1.26.09-.79.7-1.56 1.74-2.4.9-.42-.42-.86-.89-1.24-.62s-.92.58-1.47.08c-.18-.17-.52-.42-.75-.18-.65.69-1.14 0-1.71-.14a3.63 3.63 0 0 0 .17-2c-.22-.85.64-1 .82-1.66a15.17 15.17 0 0 1 1.41-3.71 3.28 3.28 0 0 0 .44-1.42h0a.39.39 0 0 1 .35 0 2.86 2.86 0 0 0 3.61.18 3 3 0 0 1 2.32 0 5.7 5.7 0 0 0 3 .19 7.64 7.64 0 0 1 4 .57 40.34 40.34 0 0 0 1.85 4.73 5.44 5.44 0 0 1 .69 2.92z" fill="#f7911f"/><path d="M64.76 74.2a9.37 9.37 0 0 1-2.59-.2c-.68-.07-1.26-.38-2 .28-.37.33-1.53 0-2-.26a3.12 3.12 0 0 0-3.24.13c-1.29.73-2.42.1-3.39-.86.69-2.54 1.65-5 2.58-7.43.78-.11 1.53 0 2-1s1.07-.67 1.61.26c.17.3.35.69.75.65s.63-.41.69-.84c0-.27-.1-.76.44-.6s.95-.4 1.37.27c.31.49.3 1.17.86 1.51 1.16 2.63 2.06 5.34 2.92 8.09z" fill="#f7921e"/><g fill="#f8971e"><path d="M63.46 51.72c-.91 0-1.71-.65-2.71-.33s-2.26-.12-3.22.65c-.06.05-.15.12-.21.11-1.73-.46-3.63.48-5.26-.66-.09-.52.19-.71.65-.73a1.42 1.42 0 0 0 .74-.67c.78-.73.85-1.83 1.41-2.68.28-.22.37-.83 1-.47l-.89 2.5c1.19-.11 1.32-1.18 1.34-1.87 0-1.41.75-2.5 1.2-3.81 1.3 1.66 1 3.92 2.18 5.75.6-1.07-.16-1.64-.23-2.32a.55.55 0 0 1 .7-.25 5.76 5.76 0 0 0 2.76 3.86c.27.2.67.41.54.92z"/><path d="M55.81 46.94c-.41 0-.6.38-1 .47 0-1.19.8-2.09 1.06-3.2a17.14 17.14 0 0 1 1.15-3c.1-.25.12-.73.53-.65a.8.8 0 0 1 .61.66c0 .52-.06 1 .75 1 .46 0 .22.68.21 1 0 .51-.52.39-.72.29-1.3-.64-1.78-.09-2 1.16a17.77 17.77 0 0 1-.59 2.27z"/><path d="M60.11 46.94l-.7.25c-.37-.92-.23-2-.83-2.86-.11-.15-.59-1.54-.24-1.59s.74 1 .88 1.48a24.67 24.67 0 0 1 .89 2.72z"/></g><path d="M51.54 73.27c.23.59.23 1.11-.44 1.42a2 2 0 0 1 .44-1.42z" fill="#f7921e"/><path d="M53.45 50.09c0 .56-.24.73-.74.67.19-.29.37-.59.74-.67z" fill="#f8951e"/><g fill="#fff"><path d="M44,132.36c.47-2.45,1.27-5.29,1.24-7.84,0-1.45-.64-2.8-.51-4.25,0-.47-.36-.47-.62-.58a3.56,3.56,0,0,1-2.49-4c.37-3,.37-6,2.23-8.64,1.3-1.83,2.9-2.28,4.78-1.11l.53.36c.29-1.4.88-2.52,2.4-2.65A3.48,3.48,0,0,1,55,104.81a5.61,5.61,0,0,1-.28,5.31c-.71.81,0,1.48,0,2.2,0,.25.47,0,.72,0,1.38-.34,1.95,0,2.16,1.41a4.63,4.63,0,0,1,0,1.78c-.91,3.7-1,7.51-1.49,11.25-.25,1.77-.37,3.87-.58,5.64"/><path d="M49.7 132.37c-.31-.5-.06-.15-.21-.67a2.43 2.43 0 0 1 .17-.52c0-.07 0-.14.05-.22-.06.09-.05.2-.1.29-.19.26-.21 1-.59 1.11m-21.58.01c.48-2.19 0-4.49 0-6.67a1.09 1.09 0 0 0-.46-.78 4.36 4.36 0 0 1-1.41-3.92c.24-1.53-.37-3.33.92-4.56s1.61-2.66 2.19-4.14c.68-1.77 2.48-2.34 4.08-2.71a3 3 0 0 1 3.57 3.19 6.75 6.75 0 0 1-.84 4c-.31.47.21 1.5.39 2.41l.95-.59c.71-.34 1.51-.27 1.78.43a3.67 3.67 0 0 0 2.28 2.35c.79.31.56 1.39.21 2.15a28.68 28.68 0 0 0-1.88 5 12 12 0 0 0-.32 3.85"/></g><path d="M45.37 132.36a60.46 60.46 0 0 0 1.22-7.68 29.43 29.43 0 0 0-.48-5.42c0-.23-.42-.53-.7-.6-2.12-.54-2.65-1.31-2.35-3.48l.55-4.12a6.7 6.7 0 0 1 1.29-3.28 2.19 2.19 0 0 1 2.1-1.14 2.65 2.65 0 0 1 1.92 1.61 6 6 0 0 0 .53.71c.38-.35 1.12-.34 1.09-1.1 0-.51-.08-1 0-1.54a1.48 1.48 0 0 1 1.61-1.52c1.22 0 2 .61 2 1.58 0 .76.51 1.51 0 2.28-.27.38-.37.86-1 .94-.14 0-.35.46-.32.69l.53 3.15c.06.46.24.68.66.6s1.06-.28 1.58-.43 1 0 .89.66l-.56 2.86-1.32 11.44-.45 3.8m-3.1 0c.2-1.17.43-3.71.52-4.89a2.56 2.56 0 0 0-.16-1.17 11 11 0 0 0-.85-1.37 9.77 9.77 0 0 0-.59 1.22l-.63 2.27a10.45 10.45 0 0 1-.43 1.1 30 30 0 0 0-1.11 2.85m5.12-14a6.37 6.37 0 0 0 1.21 4.7 3.14 3.14 0 0 0 .32.31 1.27 1.27 0 0 0 .17-.38l.43-3.76.27-2.71c0-.62-.09-1.15-.81-1.19-1.19-.08-1.59.22-1.59 1.12-.09.68-.08 1.31-.08 1.95zm-17.58 13.99a23.81 23.81 0 0 0-2.24-2.37h-.48l-.06.26-.17.73c0 .27-.18 1.09-.22 1.37m-3.16 0c-.33-.23 0-1.22 0-1.91a9.89 9.89 0 0 0-.17-3.75 3.29 3.29 0 0 1 .12-1.63c.12-.53.14-.84-.51-1.06a2.26 2.26 0 0 1-1.46-2.42 20.41 20.41 0 0 1 .56-4 3 3 0 0 1 1.33-1.54 1.14 1.14 0 0 0 .68-1.09 9.39 9.39 0 0 1 .16-1.17c.27-1.79 1.71-2.39 3.16-2.79a1.84 1.84 0 0 1 2.34 2 13.12 13.12 0 0 1-.26 2 .8.8 0 0 1-.51.52c-.65.1-.59.4-.46.92l1 4.27a2.67 2.67 0 0 0 .25.7 5.08 5.08 0 0 0 1.2-.38c.13-.07.1-.41.23-.52a8.69 8.69 0 0 1 1-.69 8.92 8.92 0 0 1 .38 1.41c0 .41-.74.85-.15 1.22.27.17.87-.09 1.29-.24.71-.25.91-.16.81.57a4 4 0 0 1-.45 1l-.79.06-1.13.17-.19 2.88v.7l.21.48.25.48a3.94 3.94 0 0 0-.13 2.63c.12.36.06 1.09-.22 1.15m-6.36-18a3.81 3.81 0 0 0 0 .59 5.73 5.73 0 0 0 .23.7c.21-.09.54-.13.61-.28a1 1 0 0 0-.09-.73 5.08 5.08 0 0 0-.54-.77l-.24-1.32-.19 1.41c.02.14.12.28.18.41zm5.78 12.18h0v-2.37c0-.6-.72-1-1.62-1-.67 0-.72.58-.67 1a8.53 8.53 0 0 0 1.84 4.67 1.28 1.28 0 0 0 .36.22 3.39 3.39 0 0 0 .08-.44z" fill="#308fc9"/><path d="M37.87 128.59l-.25-.48v-.47l1.1-3.76.79-.06z" fill="#4c9dd0"/><path d="M32.4 131l.17-.73zm.23-1h0z" fill="#459bd0"/><path d="M37.61 124.05l-.19 2.88zm-.2 3.58h.23v.47z" fill="#a5cee7"/><path d="M50.85 87.48h0 .69.33.15.16l.23-.07.35-.12a3.33 3.33 0 0 1 .55-.1 3 3 0 0 1 .6 0 2 2 0 0 1 .41.08h.16l.24.07h.11.35a.57.57 0 0 0 .13 0l.44-.07h.38.5a.8.8 0 0 1 .15 0l.27.08.26.16a1.58 1.58 0 0 1 .15.12l.13.15a.24.24 0 0 1 .06.09.61.61 0 0 1 0 .12.93.93 0 0 1 0 .44.67.67 0 0 1-.09.21.55.55 0 0 1-.21.19l-.1.06h-.15l-.1-.1a.67.67 0 0 0-.37 0l-.3.08h-.12l-.33.06-.32.05h-.41a2.54 2.54 0 0 1-.39 0h-.53A1.24 1.24 0 0 1 54 89l-.34-.07-.28-.07h-.09L53 88.7l-.23-.1a2 2 0 0 1-.22-.09l-.34-.18-.37-.21-.21-.12-.27-.17-.29-.18-.22-.13zm4.12.94c-.08 0-.18-.1-.26-.16a.67.67 0 0 1-.27-.54h0a1.64 1.64 0 0 0-.44-.09 1.79 1.79 0 0 0-.46 0h-.18l-.22.07h-.11-.18l.1.07a1.62 1.62 0 0 0 .37.19l.21.09.21.07.31.08h.19.28.5zm.73-.06h0 .16.2l.43-.08h.33.18a.43.43 0 0 1 .26.09.38.38 0 0 0-.13-.31.49.49 0 0 0-.3-.16h-.27-.43a.61.61 0 0 1-.11.28.73.73 0 0 1-.24.22zm10.61-.87l-.18.12-.23.14-.35.21-.32.19-.36.21-.37.19-.22.09-.2.07-.25.09h-.17l-.29.07h-.19c-.24 0-.48.05-.73.07a6.21 6.21 0 0 1-.86 0 4.33 4.33 0 0 1-.5-.08l-.29-.06-.23-.07a.94.94 0 0 0-.44 0 .57.57 0 0 0-.25.11h-.06a.71.71 0 0 1-.22-.13.68.68 0 0 1-.17-.21.82.82 0 0 1 0-.49 1.17 1.17 0 0 1 .06-.2.86.86 0 0 1 .14-.18 1.06 1.06 0 0 1 .15-.15l.23-.15.16-.07a.16.16 0 0 1 .09 0 1.69 1.69 0 0 1 .38-.07h.48a2.2 2.2 0 0 1 .36 0h.25a1.51 1.51 0 0 0 .3 0 1.59 1.59 0 0 0 .37-.06h.14l.23-.07h.15a3.11 3.11 0 0 1 .44-.08 2.29 2.29 0 0 1 .52 0h.27.14l.27.07h.07a3.38 3.38 0 0 0 .42.13 3.66 3.66 0 0 0 .87.13h.39zm-1.9.31h0-.09l-.32-.12-.21-.06h-.27a1.82 1.82 0 0 0-.33 0 2 2 0 0 0-.49.1v.13a.51.51 0 0 1-.1.24 1.8 1.8 0 0 1-.19.2l-.15.08h-.09 0a4.2 4.2 0 0 0 2.24-.57zm-3 .58h0l-.13-.09a.71.71 0 0 1-.26-.43h-.48a.88.88 0 0 0-.44.12.4.4 0 0 0-.2.38 0 0 0 0 0 0 0h0a.34.34 0 0 1 .19-.09h.32l.48.09.41.07zM58.4 90a.16.16 0 0 1 .14.05.24.24 0 0 1-.11.36.35.35 0 0 1-.25 0 .29.29 0 0 1-.14-.15A.41.41 0 0 1 58 90a.43.43 0 0 1 .1-.23.41.41 0 0 1 .2-.14.36.36 0 0 1 .15 0 .45.45 0 0 1 .35.13.52.52 0 0 1 .18.39.63.63 0 0 1 0 .27.67.67 0 0 1-.19.25.6.6 0 0 1-.13.09.81.81 0 0 1-.22.07.78.78 0 0 1-.37 0l-.17-.08-.15-.12a.8.8 0 0 1-.18-.27 1 1 0 0 1-.07-.44.89.89 0 0 1 .07-.28.8.8 0 0 1 .13-.22 1.8 1.8 0 0 1 .2-.19l.12-.08a1.14 1.14 0 0 1 .48-.12 1.63 1.63 0 0 1 .31 0h.14a1.25 1.25 0 0 1 .28.15 1.34 1.34 0 0 1 .21.2.8.8 0 0 1 .13.19 1.47 1.47 0 0 1 .1.22.5.5 0 0 1 0 .13v.16a1.09 1.09 0 0 1 0 .36 1.38 1.38 0 0 1-.16.37 1.5 1.5 0 0 1-.19.25 1.8 1.8 0 0 1-.2.19 2.75 2.75 0 0 1-.26.22l-.14.16a.42.42 0 0 0-.09.14.36.36 0 0 0 0 .27l.09.26c0 .09 0 .18.06.26a1.22 1.22 0 0 1 0 .38 1 1 0 0 1-.11.34l-.16.34a1.46 1.46 0 0 0-.07.19.37.37 0 0 0 0 .21v.12a.88.88 0 0 0 0 .15h0 0a.83.83 0 0 1-.08-.12.66.66 0 0 1-.11-.45l.06-.26a2.81 2.81 0 0 1 .1-.31.83.83 0 0 0 0-.47 1.33 1.33 0 0 0-.1-.28c0-.09-.08-.18-.11-.27a.55.55 0 0 1 0-.38c0-.08 0-.17.08-.25a1 1 0 0 1 .19-.27l.21-.21a.86.86 0 0 0 .14-.13 2.43 2.43 0 0 0 .2-.25.75.75 0 0 0 .09-.15v-.07a.52.52 0 0 0 0-.37 1.14 1.14 0 0 0-.09-.26.52.52 0 0 0-.21-.23.78.78 0 0 0-.2-.11.63.63 0 0 0-.45 0l-.17.08a.86.86 0 0 0-.13.14.31.31 0 0 0-.06.13.4.4 0 0 0 0 .32.52.52 0 0 0 .06.13.36.36 0 0 0 .23.15h.08a.35.35 0 0 0 .33-.15.31.31 0 0 0 0-.28.25.25 0 0 0-.21-.16.24.24 0 0 0-.21.08.19.19 0 0 0 .12.32.17.17 0 0 0 .18-.21h.02zm-.4-2.77l-.13-.12-.27-.25-.26-.21-.15-.1-.21-.13-.18-.09-.33-.14-.26-.08c-.12 0-.23-.07-.35-.09l-.65-.08a4.87 4.87 0 0 0-.54 0h-.29l-.4.05h-.35-.31-.22-.26-.15l-.31.07-.23.06h-.18l-.5.08h-.4-.21.12l.21-.07.23-.07h.07l.2-.08.22-.07.24-.09.27-.11.21-.07.32-.1.25-.07h.07l.51-.11a3.93 3.93 0 0 1 .48-.06h.43a3.46 3.46 0 0 1 .56 0 2.7 2.7 0 0 1 .41.05 1.55 1.55 0 0 1 .23.06 2.1 2.1 0 0 1 .24.06l.18.06.2.08.17.09.24.13.19.14.18.14.17.16.22.24a3.62 3.62 0 0 1 .22.32.7.7 0 0 1 .09.17.115.115 0 0 1 .01.23z"/><path d="M59.19 87.22a.36.36 0 0 1 0-.09l.11-.13.17-.24.16-.2a2.66 2.66 0 0 1 .35-.32l.31-.22a2.37 2.37 0 0 1 .35-.19l.4-.17a1.83 1.83 0 0 1 .25-.06h.19a6.18 6.18 0 0 1 .62-.07 6 6 0 0 1 .73 0 1.57 1.57 0 0 1 .3.05h.26.24l.34.08.25.06h.16.09l.29.1.24.18.25.09.2.07h.07l.37.13.31.09h.11 0-.44-.28-.29l-.3-.05-.32-.08h-.14l-.42-.09-.42-.06h-.28L63 86a6.17 6.17 0 0 0-1 0h-.43l-.37.07h-.14l-.34.11-.2.07-.18.08-.14.08a.61.61 0 0 0-.14.07l-.25.16-.26.2c-.1.08-.2.18-.3.27l-.09.1zm-.11-1.52a.51.51 0 1 1-.51-.52.5.5 0 0 1 .51.52z"/><path d="M231.39 114.84q-47.14 0-94.3 0c-1.24 0-1.49-.32-1.47-1.5.08-3.75 0-7.5 0-11.25 0-.71.15-1.06.91-.93a4 4 0 0 0 .6 0q94.36 0 188.72 0c1.27 0 1.56.34 1.53 1.56-.08 3.59-.07 7.18 0 10.78 0 1.06-.23 1.37-1.35 1.37q-35-.06-70 0zm-34.05-92.51a29.54 29.54 0 0 0-9.45 13.38 21.56 21.56 0 0 0-1 4A68.18 68.18 0 0 1 184 50.53a1.43 1.43 0 0 1-.12.21c-.24.48.39 1.24-.5 1.53-.73.24-1.06-.43-1.6-.61a8.72 8.72 0 0 1-.91-.27c-1.59-.81-2.66-1.78-2.65-3.9a63.38 63.38 0 0 1 1.55-13.26c.95-4.4 1.66-8.84 2.38-13.28.35-2.2 1-2.58 3.1-1.66s3.12 2.64 3.77 5a16 16 0 0 1 2.47-3.06c.78-.85 1.55-1.72 2.39-2.52 3.29-3.15 7.79-2.35 9.72 1.84a5.34 5.34 0 0 1-.38 4.94 32 32 0 0 1-4.36 6.26 27.17 27.17 0 0 1-6.29 5.4c-1.1.6-1.94.25-3.34-1.22-.81-.86-.52-1.58.09-2.31l4.89-5.9a18.86 18.86 0 0 0 3.13-5.39zm79.33-5.86c-1.12 3.05-3.53 4-6.46 4.24a12.2 12.2 0 0 1-1.78.18c-1.5-.13-1.94.66-2.18 2a51.1 51.1 0 0 1-2.39 9.21 2 2 0 0 1-.47.82c-2.63 2.17-2.64 5.61-4 8.39-.49 1-.31 2.4-1.29 3.33-.34.33.15.64.27.95s.19.46 0 .67a.57.57 0 0 1-.77 0A3.87 3.87 0 0 1 256 44a23.05 23.05 0 0 1-.87-9.8c.36-4.14 1.43-8.15 2.14-12.23.27-1.57.07-1.82-1.45-1.44-.66.16-1.26.49-1.84-.2a6 6 0 0 1-1.76-3.33c0-.59.55-.84 1-1a15.5 15.5 0 0 1 4.54-1c.75-.06 1.13-.32 1.21-1 .24-2.08.84-4.17-.44-6.15a1.19 1.19 0 0 1 .35-1.77c.67-.47 1.43-1 2.13-.23 1.66 1.82 3.58 3.43 4.76 5.66a5.22 5.22 0 0 1 .75 2.84c-.06.79.31 1 1 1.16a63.35 63.35 0 0 0 7.14.65 8.78 8.78 0 0 1 2.01.31z" class="E"/><path d="M182.72 95.53a9.74 9.74 0 0 1-6.06-2.77c-.82-.77 0-1.46.15-2.17A.88.88 0 0 1 178 90c1.56.69 2.84-.22 4-.82a16.53 16.53 0 0 0 5.3-4.41c1.2-1.48 1.05-2-.68-2.74l-4.27-1.84c-3.45-1.73-4.37-4.1-3-7.69 1.25-3.21 3.58-5.62 6.09-7.87a1.77 1.77 0 0 1 1.89-.43 16.93 16.93 0 0 1 5.72 3.1 3.11 3.11 0 0 1 .87 1.27 1.06 1.06 0 0 1-1 1.55 13.16 13.16 0 0 0-3.19.48 5.56 5.56 0 0 0-3.26 7.4c.18.39.52.45.85.57l3.13 1.17c3.29 1.54 4.22 3.57 3 7a12.33 12.33 0 0 1-3.18 4.72A15.36 15.36 0 0 1 185.4 95a6.32 6.32 0 0 1-2.68.53z" class="G"/><path d="M166.1 44.78a9.75 9.75 0 0 1-6.28-2.84c-.75-.71.05-1.39.19-2.06a.87.87 0 0 1 1.19-.7c1.55.73 2.84-.17 4-.78a16.56 16.56 0 0 0 5.44-4.59c1-1.27.83-1.81-.6-2.47l-4.71-2c-3.12-1.61-4-3.8-2.85-7.14s3.66-5.92 6.27-8.29a1.73 1.73 0 0 1 1.8-.33 15 15 0 0 1 6 3.34 1.77 1.77 0 0 1 .55 1.95c-.31.77-1 .65-1.64.66a8.85 8.85 0 0 0-2.36.33 5.55 5.55 0 0 0-3.45 7.43c.18.4.52.46.84.58l3.45 1.33c3 1.48 3.83 3.38 2.81 6.52a11.13 11.13 0 0 1-2.48 4.17A15.58 15.58 0 0 1 169 44a7.47 7.47 0 0 1-2.9.78z" class="E"/><path d="M303.45 86.61a28.78 28.78 0 0 0-4.87 2.87c-1.52 1.31-3.51 1.88-5.14 3a.91.91 0 0 1-1-.09l-1.34-.79c-1-.53-1.1-1.21-.92-2.35.95-5.87 2.87-11.49 4.36-17.22a14.56 14.56 0 0 0 .25-1.65c0-.32.05-.69.38-.82a.92.92 0 0 1 1 .3 4 4 0 0 1 1.22 3.9c-.77 4.31-2.06 8.49-3 12.77-.06.31-.24.67 0 .91s.52-.06.77-.15c2.59-1 5.36-1.48 8-2.37a.91.91 0 0 0 .75-.86c.15-1 .38-2 .62-3 .17-.75-.07-1-.85-.91a2.16 2.16 0 0 1-2.22-2c0-.57.42-.75.83-.87a10 10 0 0 1 2.21-.48c.76 0 1.05-.33 1.13-1.06.12-1.1.38-2.2-.29-3.24a.83.83 0 0 1 .27-1.24.93.93 0 0 1 1.38.08c1.35 1.54 3.08 2.82 3.24 5.14.05.82.89.67 1.42.73 1.31.14 2.62.2 3.94.27.68 0 .82.22.45.87-.95 1.69-2.62 1.88-4.24 1.93-1.28 0-1.73.55-1.92 1.71a20.79 20.79 0 0 1-1.24 4.83 2.31 2.31 0 0 1-.31.77c-1.66 1.71-2.05 4-2.61 6.13-.17.64-.89 1.09-.51 2 .13.29-.4.22-.62.07a2.63 2.63 0 0 1-.93-1.49 15.55 15.55 0 0 1-.41-6.4l.2-1.29z" class="F"/><path d="M267.21 90.37c0-3.22.83-6.06 1.3-9 .06-.42.4-1 0-1.21a1.45 1.45 0 0 0-1.64.4 40.87 40.87 0 0 0-3.4 4.14 16.82 16.82 0 0 0-2.95 6.63 1.78 1.78 0 0 1-2.5 1.12 4.1 4.1 0 0 1-3-4.13l-.54-5.58a6.1 6.1 0 0 0-.84-2.71 1 1 0 0 1-.08-1.23c.3-.34.76 0 1.12.09a8 8 0 0 1 4.4 3.84c.39.7.61.78 1.11.12l2.16-2.57a8.7 8.7 0 0 1 6.37-3.51c.68-.1 1-.3 1.06-1 .14-1.15.4-2.28-.29-3.36a.8.8 0 0 1 .32-1.21c.46-.3.9-.39 1.29 0 1.35 1.53 3.12 2.8 3.27 5.11 0 .87.84.74 1.36.8l3.7.28c.34 0 .8-.14 1 .25s-.28.62-.45.92c-.92 1.55-2.55 1.55-4 1.63a1.67 1.67 0 0 0-1.98 1.73 21.83 21.83 0 0 1-1.27 5 2.77 2.77 0 0 1-.39.85c-1.59 1.66-1.95 3.83-2.51 5.92-.17.68-.93 1.18-.52 2.06.11.22-.33.23-.54.11a2.16 2.16 0 0 1-.9-1.23 10.88 10.88 0 0 1-.66-4.26z" class="G"/><path d="M215.67 33.88a67.45 67.45 0 0 1 1.79-14 13 13 0 0 0 .31-2.84c0-.92.42-1.15 1.22-1.19 2.69-.16 5.32.83 6.06 3.56.23.82.64.31.95.1a6.87 6.87 0 0 1 7.66-.48 2.6 2.6 0 0 1 1.45 3.36.93.93 0 0 1-1.42.62c-2.7-1.32-5.06-.49-7.23 1.15A10.66 10.66 0 0 0 222.4 32a52.4 52.4 0 0 0-.45 8.58c.05.81-.57 1.18-1.31 1.32a.89.89 0 0 1-.23 0c-4.24-.3-3.85-.29-4.53-4a27.87 27.87 0 0 1-.21-4.02z" class="E"/><path d="M205.92 75.55c-.43 2.91-.76 6.5-2.91 9.56a8.48 8.48 0 0 0-.95 2.43 9.06 9.06 0 0 1-.49 1.47c-.74 1.48-1.58 1.6-3 .88-2.63-1.32-2.49-3.67-2.18-5.9a44.37 44.37 0 0 1 4.21-13.87c.44-.87.9-1 1.64-.63 2.76 1.38 3.76 2.68 3.68 6.06z" class="G"/><path d="M204.45 34.71a42.17 42.17 0 0 1 3.38-13.29l1-2.17c.26-.75.64-.73 1.27-.52a5.31 5.31 0 0 1 3.9 5.12 19.56 19.56 0 0 1-2.81 10.45 8.31 8.31 0 0 0-1 2.54 4.42 4.42 0 0 1-1.52 2.61.92.92 0 0 1-1.29.12c-1.92-1.07-3.38-2.37-2.93-4.86zM282.32 25c-.48 2.8-.76 6.35-2.89 9.38a7.73 7.73 0 0 0-.93 2.31 10.56 10.56 0 0 1-.52 1.59c-.73 1.48-1.56 1.57-3 .85-2.64-1.33-2.45-3.68-2.14-5.9a43.81 43.81 0 0 1 4.27-14c.32-.65.61-.82 1.25-.55 2.45 1.08 4.11 2.59 3.96 6.32z" class="E"/><path d="M202.27 65.31a20 20 0 0 1 1.34-5.76c.28-.78.85-1 1.49-.58 2.06 1.32 2.89 2.74 1.66 4.94-.7 1.25-1.84 2.19-2.5 3.47a.59.59 0 0 1-.82.27 1.83 1.83 0 0 1-1.16-1.27 7.61 7.61 0 0 1-.01-1.07z" class="F"/><path d="M210.38 14.59A19.4 19.4 0 0 1 211.67 9c.32-.92.92-1.08 1.77-.56 2.14 1.3 2.54 3.07 1.19 5.16-.69 1.07-1.66 1.93-2.26 3.08-.16.29-.44.52-.79.33-.53-.28-1.07-.6-1.19-1.25a6.86 6.86 0 0 1-.01-1.17zm68.29.1A19.1 19.1 0 0 1 280 9c.32-.91.93-1 1.78-.52 2.13 1.32 2.52 3.06 1.16 5.16a38.16 38.16 0 0 0-2.27 3.08.57.57 0 0 1-.8.3c-.51-.3-1.06-.61-1.16-1.27a6.36 6.36 0 0 1-.04-1.06z" fill="#f09322"/><path d="M261.09 121.55a12.45 12.45 0 0 0-.63 3.06c-.09.67-.43.88-1 .77s-.32-.65-.27-.94l.86-4.81c.07-.46.17-.72.71-.71s.82.07 1 .61l1 3 2.11-3a1.14 1.14 0 0 1 1.43-.53c.56.2.2.77.15 1.14l-.74 4.22c-.2 1.07-.21 1.06-1.47 1l.61-3.56-.16-.09-1.39 2c-.23.3-.36.74-.87.72s-.5-.56-.65-.88c-.28-.65-.44-1.26-.69-2zm10.75 3.71l.68-4c.05-.31.06-.68.5-.67.27 0 .63-.19.71.36s.32 0 .45 0c.85-.39 1.68-.79 2.43.21.3.4.46-.06.65-.18a1.86 1.86 0 0 1 2-.23c.67.4.5 1.11.41 1.74l-.36 2.23c-.06.75-.5.7-1 .64s-.28-.55-.26-.83a14.94 14.94 0 0 1 .33-1.87c.09-.35.08-.66-.22-.85a.91.91 0 0 0-1 .14c-.77.49-.59 1.34-.82 2-.11.34-.09.71-.18 1.06-.16.58-.66.32-1 .31s-.24-.4-.2-.63l.35-1.88c.06-.38.22-.85-.26-1.06a1.06 1.06 0 0 0-1.25.45 3.59 3.59 0 0 0-.54 2.05c-.07 1.06-.44 1.39-1.42 1.01zm-23.64-2.77c1.21-.53 1.61-2.16 3.23-1.77-.35.91-1.72 1.21-1.66 2.13a7.51 7.51 0 0 0 1.14 2.45c-1.14.1-1.14.1-2.28-1.81a1.34 1.34 0 0 0-.82.94c-.19 1-.22 1-1.38.88l1-5.9a.69.69 0 0 1 .89-.67c.7.08.41.57.36.9l-.48 2.85zm-56.09-3.56h1.43c.3 0 .68-.1.62.45s-.08.79-.67.74-1.12.06-1.67 0c-.92-.15-.95.51-1 1.07-.1.89.63.44 1 .53a3.82 3.82 0 0 0 .83 0c.31 0 .57 0 .53.43s0 .57-.43.6a.65.65 0 0 1-.24 0c-1.69-.36-2.32.45-2.31 2 0 .61-.45.63-.93.6-.77 0-.38-.6-.34-.88l.74-4.34c.13-.94.45-1.46 1.49-1.24a5.12 5.12 0 0 0 .95.04zm27.25 6.34l.68-4c.05-.31.06-.67.51-.66.27 0 .67-.2.68.36s.23.15.35.08a2.94 2.94 0 0 1 1.21-.47c1.12-.11 1.6.28 1.52 1.4s-.34 2-.46 2.93c-.08.67-.55.42-.9.45-.58.06-.36-.33-.32-.61l.31-2c.05-.35.16-.76-.23-1a1.09 1.09 0 0 0-1.2.3c-.71.58-.63 1.46-.71 2.21-.1 1.1-.51 1.34-1.44 1.01zm-73.87-2.76h8.73c.28 0 .81-.27.83.33s-.51.36-.8.36q-8.85 0-17.69 0c-.3 0-.92.32-.88-.39 0-.56.56-.3.85-.3h8.96zm172.3 0h8.72c.29 0 .81-.27.84.32s-.5.37-.78.37q-8.91 0-17.81 0c-.29 0-.82.24-.78-.38s.55-.31.84-.31h8.97zm-78.68-2.35l-1.93-.09c-.12-.92.26-1.21 1.13-1.16 1.19.07 2.39 0 3.58 0 .32 0 .76-.16.68.48 0 .46-.15.81-.69.69-1.47-.35-1.64.59-1.76 1.68s-.37 1.95-.48 2.93c-.07.71-.5.7-1 .66-.78-.07-.32-.57-.27-.87l.74-4.32zm-75.7-1.25l-.82 4.59c-.14.62 0 .79.6.76s1.27 0 1.9 0c.41 0 .57.13.53.56s-.12.58-.55.58h-3.58c-.51 0-.47-.28-.41-.61l.95-5.37c.15-.84.79-.37 1.38-.51zm67.59 1.68a1.7 1.7 0 0 1 1.19.32c.19.13.43.31.19.56s-.26.63-.7.37a1.63 1.63 0 0 0-.53-.26c-.46-.06-1.08-.24-1.22.36s.5.47.85.62c.63.28 1.51.4 1.36 1.37a1.78 1.78 0 0 1-1.86 1.52 2.89 2.89 0 0 1-1.84-.35c-.28-.18-.54-.36-.24-.73s.34-.59.73-.22a1.07 1.07 0 0 0 .52.26c.48 0 1.15.36 1.34-.28s-.56-.5-.91-.68c-.59-.29-1.34-.43-1.2-1.36a2.09 2.09 0 0 1 2.32-1.5zm67.63 4.87a2.56 2.56 0 0 1-1.47-.39c-.24-.17-.47-.33-.22-.65s.27-.65.71-.31a1.25 1.25 0 0 0 .51.29c.48.07 1.17.36 1.38-.22s-.59-.53-1-.74-1.2-.38-1.15-1.17a1.68 1.68 0 0 1 1.17-1.51 2.64 2.64 0 0 1 2.08 0c.28.13.78.25.43.74-.19.27-.4.62-.84.25a1.31 1.31 0 0 0-.66-.23c-.35 0-.8-.07-.91.34s.37.51.67.63c.7.31 1.66.36 1.53 1.48-.05.95-.98 1.51-2.23 1.49zm-116.91-4.96l-2.39 4.43c-.3.62-.78.41-1.22.44s-.47-.38-.53-.72l-.65-3.26c-.05-.28-.32-.75.33-.78.46 0 .87 0 .94.59l.4 2.68c1.24-.88.82-3.12 3.12-3.38zm44.56 4.95c-1 0-1.37-.43-1.21-1.34l.32-1.75c.05-.3.24-.55-.2-.79a.51.51 0 0 1 0-.86c.65-.11.57-.56.62-.95.09-.58.45-.65.94-.62.78 0 .34.59.32.88s-.23.64.33.58c.36 0 .52.1.48.47a.58.58 0 0 1-.49.57 2.56 2.56 0 0 0-.94 2.42c.05.1.18.23.25.22.5-.09.85 0 .76.6s-.66.42-1 .56a.55.55 0 0 1-.18.01zm-20.13 0c-1 0-1.37-.43-1.21-1.34l.32-1.75c.05-.3.24-.55-.2-.79a.51.51 0 0 1 0-.86c.65-.11.57-.56.62-.95.09-.58.45-.65.94-.62.78 0 .34.59.32.88s-.23.64.33.58c.36 0 .52.1.48.47a.58.58 0 0 1-.49.57 2.56 2.56 0 0 0-.94 2.42c0 .1.18.23.25.22.5-.09.85 0 .76.6s-.66.42-1 .56a.55.55 0 0 1-.18.01zm7.45-.18l.67-3.86c.06-.33 0-.77.51-.79.31 0 .61-.14.76.43s.38-.16.62-.2.84-.52 1-.1a.77.77 0 0 1-.69 1.08c-1.49.16-1.35 1.51-1.46 2.49s-.5 1.26-1.41.95zm72.13-.01l.68-3.84c.06-.33 0-.77.49-.8.31 0 .63-.16.77.43s.38-.15.61-.2.85-.52 1.05-.1a.75.75 0 0 1-.68 1.07c-.92.09-1.17.8-1.37 1.67s.38 2.42-1.55 1.77z" class="H"/><path d="M275.45 91.36c1.16.12 2.15 1 2.08 1.75 0 .55-1.15 1.26-1.83 1.18a1.85 1.85 0 0 1-1.51-1.72c.09-.71.36-1.31 1.26-1.21zm50.09 0c1.16.12 2.15 1 2.07 1.75 0 .56-1.15 1.26-1.82 1.18a1.89 1.89 0 0 1-1.52-1.72c.1-.71.37-1.31 1.27-1.21z" fill="#2e8dc9"/><path d="M217 125.28l.66-4c.09-.67.46-.77 1-.69.7.1.33.55.27.9a22.45 22.45 0 0 0-.48 2.8c-.11 1.09-.57 1.31-1.45.99zm73 .1c-.47 0-.75 0-.59-.63a32 32 0 0 0 .59-3.5c.08-.61.42-.68.91-.65.72.05.42.48.35.85l-.55 3.27c-.07.48-.2.76-.71.66zm-57.37.72c.12-.94-.62-1.9.68-2.1.49-.07.46.24.41.61-.1.71-.19 1.51-.93 1.76-.45.15-.16-.37-.16-.27zm58.37-6.03c-.42 0-.82.06-.71-.45s0-1 .78-.92c.44 0 .65.13.61.61s-.22.84-.68.76zm-71.7-.89c0 .54-.13.94-.73.88-.27 0-.73.15-.65-.38s0-1 .72-1c.36.05.75-.01.66.5z" class="H"/><path d="M197.48 107.74v3.21c0 .66-.22.8-.82.8s-.94-.09-.91-.83v-4.54c0-.37-.3-1 .34-1.08s1.24-.26 1.71.45l2.52 3.45v-3.27c0-.79.45-.64.92-.67s.8.08.78.7v4.66c0 .37.31 1-.33 1.07s-1.25.27-1.72-.44l-2.49-3.51zm49.85 0V111c0 .73-.34.73-.87.74s-.88-.06-.86-.75v-4.66c0-.35-.26-.93.28-1s1.25-.33 1.73.38l2.57 3.49v-3.19c0-.7.31-.75.86-.75s.87.07.85.76v4.66c0 .35.27.93-.27 1s-1.26.31-1.73-.38l-2.56-3.56zm48.13 3.99c-1.67 0-1.67 0-1.67-1.71v-3.94c0-.59.12-.89.78-.83s1 0 1.56 0c2.29 0 3.47 1.19 3.45 3.32s-1.25 3.11-3.51 3.14zm-125.81-3.3a1.93 1.93 0 0 1 0-.59c.29-.84-.72-2.25.57-2.51 2.85-.58 4.77.44 5.17 2.34a3.13 3.13 0 0 1-2 3.84 11.17 11.17 0 0 1-3.31.21c-.5 0-.44-.35-.44-.66l.01-2.63z" fill="#fffefe"/><path d="M191.21 111.73a3.24 3.24 0 1 1 .07-6.47 3.25 3.25 0 1 1-.07 6.47zm90.22 0a3.24 3.24 0 1 1-.15-6.47 3.25 3.25 0 1 1 .15 6.47zm-23.35-2.4h-1.23c-.35 0-.56-.16-.57-.57s.14-.65.62-.64a17.15 17.15 0 0 0 2.15 0c.7-.06.78.29.74.85a3 3 0 0 1-2.79 2.75c-2.05.18-3.58-.8-3.92-2.49a3.13 3.13 0 0 1 1.37-3.43 3.68 3.68 0 0 1 4.06.06c.32.2 1 .52.59.92s-.91.93-1.54.41a1.52 1.52 0 0 0-2.15-.1 2 2 0 0 0-.57 2.07 1.56 1.56 0 0 0 1.45 1.35 1.63 1.63 0 0 0 1.79-1.18z" fill="#fffefc"/><path d="M271 108.48v-2.15c0-.71 0-1.1.89-1.11s.85.55.85 1.14c0 .78-.3 1.62 1.14 1.6 1.22 0 1.26-.54 1.21-1.42 0-.62-.27-1.4.91-1.3.66.05.89.2.87.88v4.79c0 .72-.28.83-.91.84s-1-.14-.88-.85a3.84 3.84 0 0 0 0-.48 1.33 1.33 0 0 0-2.06-1.27c-.62.36-.28 1.09-.25 1.63 0 .84-.3 1-1 1-.58 0-.81-.19-.74-.76a.49.49 0 0 0 0-.12l-.03-2.42z" fill="#fff"/><path d="M223.53 111.57c-2 .86-2.42-.71-3.3-2.19v1.4c.08.69-.1 1-.89 1s-.83-.32-.82-.93v-4.77c0-.64.18-.85.81-.81s1.44 0 2.15 0a1.8 1.8 0 0 1 1.75 1.36 1.76 1.76 0 0 1-.7 2.2c-.55.32-.5.52-.18.94s.79 1.23 1.18 1.8z" fill="#fffdfc"/><path d="M231.06 108c1.28-1.23 1.53-3.46 3.89-2.6a12 12 0 0 1-1.64 2.31.94.94 0 0 0 0 1.44c.68.76 1.27 1.61 1.9 2.43-2.35 1-2.89-1.18-4.16-2.53v1.62c0 .46.11 1.12-.87 1.12s-.88-.5-.88-1.12v-4.66c0-.72.34-.74.88-.74s.95 0 .88.73c-.06.56 0 1.15 0 2zm10.64 3.57c-2.41 1-2.89-1.22-4.17-2.52v1.6c0 .62.09 1.12-.88 1.12s-.87-.52-.87-1.12v-4.67c0-.73.37-.72.89-.73s.94 0 .87.74 0 1.17 0 1.91c1.31-1 1.49-3.48 3.88-2.49a12.4 12.4 0 0 1-1.64 2.29 1 1 0 0 0 0 1.44c.7.76 1.28 1.61 1.92 2.43z" fill="#fffefe"/><path d="M306.61 111.66c-.92 0-1.86.47-2.06-.92-.05-.33-2.45-.32-2.5 0-.19 1.32-1.1.94-2.06.95l2.07-6.07c.28-.75 1.06-.27 1.61-.36.38-.07.75-.06.93.47l2.01 5.93z" fill="#fffefc"/><path d="M152 111.53l1.72-2.45a1.05 1.05 0 0 0 0-1.55l-1.45-2c1.55-.48 1.6-.46 3 1.56.44-1.42 1.21-2.28 2.82-1.64a13.35 13.35 0 0 1-1.54 2.35.93.93 0 0 0 0 1.27l1.81 2.54c-1.76.36-1.76.36-3.2-2-.83 1-1.1 2.91-3.16 1.92z" fill="#fffdfc"/><path d="M158.87 108.45v-.72c0-2.74 0-2.74 2.81-2.46a2.06 2.06 0 0 1 2 2.2 1.84 1.84 0 0 1-2.05 2.07c-1 0-1.14.4-1 1.19s-.1 1-.94 1-.81-.49-.8-1.05l-.02-2.23z" fill="#fffffe"/><path d="M147.37 108.46v-.24c0-3.27 0-3.26 3.29-3 .54 0 .65.25.65.72s-.06.79-.64.73h-.95c-.32 0-.67.07-.66.57s.12.68.61.63h.71c.58 0 .86.09.85.77s-.31.72-.81.68a1.09 1.09 0 0 0-.36 0c-.35.1-1-.31-1 .46s.6.42 1 .48.75 0 1.05.09.18.63.19 1-.31.36-.59.39c-3.32.37-3.32.37-3.32-2.92zm17.25.04v-.36c0-3.17.15-3.28 3.36-2.89.61.07.56.4.57.8s-.07.69-.58.65h-1.07c-.51 0-.58.22-.58.65s.14.58.56.55.63 0 1 0c.56 0 .65.25.65.72s-.08.69-.64.76-1.49-.51-1.45.5c0 .85 1 .35 1.46.39s.72.26.72.8-.18.73-.7.67a.48.48 0 0 0-.12 0c-3.18.13-3.18.13-3.18-3.24zm59.67-.12v-.24c0-3.17.17-3.29 3.37-2.89.61.07.55.4.57.8s-.09.69-.59.65h-1.07c-.52 0-.58.23-.58.65s.15.57.56.55h1.07c.56 0 .52.35.52.72s0 .74-.51.72h-1.2c-.4 0-.42.12-.43.42s.05.55.45.53.71 0 1.07 0c.61-.07.72.24.72.77s-.19.73-.7.67a.48.48 0 0 0-.12 0c-3.13.14-3.13.14-3.13-3.35z" fill="#fff"/><path d="M314.73 105.26a2.83 2.83 0 0 1 1.13.15c.44.22.57.45.34.93s-.39.64-.87.34-1.12-.42-1.32.2.49.68.94.8c.93.25 1.75.63 1.79 1.76a2 2 0 0 1-1.29 2.08 3.68 3.68 0 0 1-3.19-.36c-.48-.45 0-.69.17-1s.39-.5.72-.15a1.37 1.37 0 0 0 .29.2c.39.19.76.5 1.22.23a.63.63 0 0 0 .37-.69c-.13-.5-.6-.54-1-.68-1.67-.53-2.17-1.45-1.51-2.69.41-.81 1-1.11 2.21-1.12z" fill="#fffdfb"/><path d="M312.21 105.42l-.63 1c-1 1.38-1.87 2.76-1.51 4.58.11.54-.12.86-.71.75-.4-.06-1.18.28-1-.52.42-2.3-.95-3.9-2-5.62v-.29c.65 0 1.41-.3 1.91.17a8.17 8.17 0 0 1 1.09 1.87c.43-1.49.99-2.69 2.85-1.94z" fill="#fffcfa"/><path d="M180.64 109.19v-1.55c0-.55 0-1-.8-.94s-.63-.36-.65-.83.31-.62.75-.61h3.23c.55 0 .67.23.65.71s0 .84-.61.74c-.86-.15-.86.37-.84 1v3.22c0 .74-.27.83-.9.84s-.93-.21-.87-.88.04-1.14.04-1.7zm34.75-3.93h1.44c.44 0 .82 0 .8.68s-.11.86-.72.76-.76.3-.74.85v3.46c0 .74-.36.73-.88.73s-.92 0-.89-.73v-3.59c0-.48-.1-.79-.66-.72s-.8-.19-.8-.8.41-.64.86-.64zm72.23 2.48a5.73 5.73 0 0 1 0 .83c-.13 1.18 0 2.07 1.57 1.73.55-.12.64.24.64.71s-.08.79-.64.72a.48.48 0 0 0-.12 0c-3.18.18-3.18.18-3.18-3v-2.63c0-.64.13-.89.84-.9s1 .22.92 1c-.07.5-.03 1.02-.03 1.54z" fill="#fff"/><path d="M178.46 108.51v2.14c0 .7-.13 1.1-1 1.12s-.83-.58-.83-1.14v-4.53c0-.69.21-.87.87-.86s1.06.08 1 .89-.04 1.59-.04 2.38zm8.15.1v2c0 .65-.07 1.13-1 1.14s-.85-.53-.85-1.13v-4.64c0-.69.3-.78.86-.75s1-.1 1 .74l-.01 2.64zm57.52-.09v2c0 .65.16 1.22-.9 1.22s-1-.46-.95-1.16v-4.4c0-.67.08-1 .88-1s1 .29 1 1l-.03 2.34zm48.4-.02v2.14c0 .71-.08 1.11-1 1.13s-.85-.55-.85-1.13V106c0-.71.31-.77.86-.75s1.05-.09 1 .75-.01 1.66-.01 2.5z" fill="#fffaf6"/><path d="M265.75 109.45v3.71c0 .46-.05.76-.63.74s-.52-.36-.52-.72v-7.43c0-.35-.08-.72.5-.74s.66.24.65.72v3.72zm-57.52-.03v3.6c0 .42.12.9-.61.88s-.54-.44-.54-.82v-7.31c0-.42 0-.78.6-.76s.55.43.55.82v3.59z" fill="#fdf4ed"/><path d="M327.47 27.9c-.47-2.92-2.49-4.7-4.6-6.46a3 3 0 0 0-2.89-.57 13 13 0 0 0-3.76 1.79c-.64.39-1 .47-1.38-.38a8.13 8.13 0 0 0-3.65-3.68c-1.24-.66-1.69-.47-2.06.88a58.86 58.86 0 0 0-1.59 6.52 6.83 6.83 0 0 1-4.11 5.18 4.51 4.51 0 0 1-2.49.78 37.58 37.58 0 0 1 2.86-5.46 1.29 1.29 0 0 0 .33-.74c0-1.71-.35-3.21-2.09-4a16.53 16.53 0 0 1-2.31-1.24c-1.26-.83-2.84-.77-4.07-1.84-3.17-2.74-2.86-2.85-5.8.4-3.86 4.25-6.68 9-6.59 15.05.05 3.75 1.05 5.12 4.69 6.15a12.58 12.58 0 0 0 2.59.4 4.12 4.12 0 0 0 3.08-1.07 30 30 0 0 0 3.53-3.22 2.56 2.56 0 0 1 2-1 7.18 7.18 0 0 0 4.7-1.76 3.35 3.35 0 0 1 1.71-.93 28.31 28.31 0 0 0-1 6 1.8 1.8 0 0 0 .81 1.74 16.44 16.44 0 0 0 4.07 2 .87.87 0 0 0 1.23-.59c.34-.89.6-1.82 1-2.67.73-1.48.46-3.21 1.3-4.67a18.17 18.17 0 0 1 6.27-6.51 6.39 6.39 0 0 1-.09.71 24.82 24.82 0 0 0-.65 7.24 5.72 5.72 0 0 0 2.3 4.41 1.53 1.53 0 0 0 2.33-.12 25.82 25.82 0 0 0 2.13-3.24 22.39 22.39 0 0 0 1.8-4.66 9.16 9.16 0 0 0 .4-4.44zm-34.33 6.66a8.17 8.17 0 0 1-3.65 2.44c-.84.22-1.32.1-1.28-1 .11-3.73 1.79-6.78 4-9.64a14.39 14.39 0 0 0 .61 4.81 4 4 0 0 0 .57 1.3c.9.85.42 1.42-.25 2.09zm6-8.77l-3.51 5.68c-.4.64-.67.36-.93-.09a4.74 4.74 0 0 1-.43-2.32 5.76 5.76 0 0 1 .48-2.56 3 3 0 0 1 4.12-1.5c.34.19.46.43.24.79z" class="E"/><path d="M173.89 78.34c.22-5.21.84-10.42.65-15.65v-4.78a10.88 10.88 0 0 0-1-5.1 3.84 3.84 0 0 0-6.23-1.06 14 14 0 0 0-2.62 3.84c-2.26 4.38-4.15 9-6.12 13.47-2.39 5.49-5.31 10.77-6.28 16.81-.31 2-.79 3.85.12 5.81a4.22 4.22 0 0 0 3.9 2.25c1.46-.23 1.76-.6 1.88-2.11l.65-7.5c0-.48.08-.89.65-1a32.45 32.45 0 0 0 6.18-1.74c1-.35 1.27.08 1.13 1.06a55.83 55.83 0 0 0-.17 8.48 2.91 2.91 0 0 0 1.74 2.64 6.47 6.47 0 0 1 1 .66 2.26 2.26 0 0 0 3.64-.87 5 5 0 0 0 .43-2.92 20.92 20.92 0 0 1-.17-5.7c.18-2.18.53-4.41.62-6.59zm-5.67-10.66c-.49 3.23-.64 6.49-1.15 9.72-.09.59-.24 1-.86.75a6.4 6.4 0 0 0-5.18.56 1.74 1.74 0 0 1-1.37.12c3.09-8.18 5.3-16.68 10.18-24.06l-1.62 12.91z" class="G"/><path d="M157.2 2.94c-1.2-3.36-4.76-3.94-7.08-1.2a18.49 18.49 0 0 0-2.27 3.64c-2 4.05-3.76 8.24-5.61 12.38-2.81 6.31-6 12.5-7 19.46a5.16 5.16 0 0 0 3.43 5.87 2.05 2.05 0 0 0 2.87-1.84c.2-2.5.65-5 .64-7.5 0-.5 0-1 .65-1.1a40.73 40.73 0 0 0 6.41-1.82c.63-.21 1-.1.92.8a57.93 57.93 0 0 0-.16 8.84 2.85 2.85 0 0 0 1.48 2.42 14.36 14.36 0 0 1 1.39.9 2.16 2.16 0 0 0 3.12-.44 5.35 5.35 0 0 0 .77-2.47c.12-1.49-.45-2.91-.32-4.4l.83-9.25c.34-4.56.63-9.15.66-13.74V7a11.65 11.65 0 0 0-.73-4.06zm-4.55 6c-.68 5.85-1.62 11.67-2.13 17.55-.07.76-.38 1.11-1.14.88a5.93 5.93 0 0 0-4.52.45 12 12 0 0 1-1.9.56c3.19-8.37 5.39-16.79 10.21-24.19L152.65 9z" class="E"/><path d="M225.69 70.57a1.14 1.14 0 0 1-1-.95c-.64-2-4.88-3.22-6.55-1.94a30.37 30.37 0 0 0-8.53 10.93 27.28 27.28 0 0 0-3.35 12.08 2.78 2.78 0 0 0 1 2.43c3.05 2.31 7.4 2.23 9.46-1.29l3.39-6.26a40.2 40.2 0 0 0 .33 5.17 4 4 0 0 0 3.73 3.44c.91.1 1.45-.19 1.38-1.25a93.62 93.62 0 0 1 .21-12.31 25.21 25.21 0 0 1 1.35-6.88c.76-1.92.55-2.67-1.42-3.17zm-4 1.82a11.16 11.16 0 0 1-1.38 3c-2.07 3.49-4.44 6.79-6.14 10.49a2.46 2.46 0 0 1-1.28 1.4 6.15 6.15 0 0 1 .72-2.75c2.12-4.13 3.85-8.47 6.86-12.1.15-.19.26-.4.42-.58a.64.64 0 0 1 .78-.11c.33.17.12.43.06.65z" class="G"/><path d="M251.83 20.68a3.37 3.37 0 0 0-1.8-.86.7.7 0 0 1-.63-.53c-.87-2.51-4.89-3.7-6.94-2-4.32 3.5-7.15 8.09-9.3 13.13a25 25 0 0 0-2.16 9.44 2.73 2.73 0 0 0 .73 2.19c2.64 2.5 7.44 2.63 9.43-.57 1.35-2.17 2.59-4.37 3.83-6.67 0 1.39-.07 2.78 0 4.16.14 2.53 1.31 3.94 3.48 4.36 1.48.28 1.84 0 1.77-1.48a89.76 89.76 0 0 1 .1-10.85 23.2 23.2 0 0 1 1.9-8.91c.3-.62-.05-1.03-.41-1.41zm-5.49 1.07a11.14 11.14 0 0 1-1.34 2.91l-4.26 6.9c-.73 1.14-1.24 2.39-1.87 3.58a2.68 2.68 0 0 1-1.29 1.42 6.39 6.39 0 0 1 .84-3c2.07-4.06 3.82-8.31 6.77-11.88a2.75 2.75 0 0 0 .26-.4.62.62 0 0 1 .83-.25c.38.16.12.5.06.72z" class="E"/><path d="M324.36 71.75c-.95-.22-1.27.43-1.54 1.12a39.9 39.9 0 0 0-2 7.11c-.17.89-.44 1.26-1.33.67-1.72-1.14-3.25-.58-4.68.6a12.89 12.89 0 0 0-4.67 8.47c-.28 2 .55 3.08 2.54 3.62a2.63 2.63 0 0 1 .55.22 3.49 3.49 0 0 0 4.89-1.9 2.06 2.06 0 0 1 .79-1.21l.29 2.33a2.34 2.34 0 0 0 1.56 2.08 1.27 1.27 0 0 0 1.79-1A77.83 77.83 0 0 1 324.13 83a93.64 93.64 0 0 0 1.54-9.41 1.5 1.5 0 0 0-1.31-1.84zm-10.05 18.56a12.83 12.83 0 0 1 5.28-7 52.74 52.74 0 0 1-5.28 7zm-60.74-18.12c-1.26-2.69-3.92-2.75-6.44-2.93-1.19-.09-.6 1.21-1.22 1.57a3.06 3.06 0 0 1-.29.21 5.55 5.55 0 0 0-2.43 2.7c-.54 1-.37 1.75.69 2.07s1.18.72.85 1.6a6.17 6.17 0 0 0-.17 1.06c-.61 4.21-1.61 8.38-1.62 12.71a18.72 18.72 0 0 0 .32 4 1.68 1.68 0 0 0 1.59 1.38c.65 0 .78-1 .74-1.58a23.89 23.89 0 0 1 .82-6.13c.3-1.51.42-3.15 1.45-4.37a56.37 56.37 0 0 0 5-6.38 6 6 0 0 0 .71-5.91zm-2.13 1.36a4.76 4.76 0 0 1-.94 2.45l-1.73 2.53a40.18 40.18 0 0 1 .31-4.59c0-.82 1.08-1.34 1.91-1.18.53.07.47.44.45.79z" class="F"/><path d="M213.13 121.92a1.71 1.71 0 0 0-2.1-1.31c-.59.08-1.08.59-1.77 0-.34-.27-.66.16-.73.64l-.89 5.17c0 .27-.4.75.24.84s.93.06 1-.65a3.46 3.46 0 0 1 .42-1.71 2.16 2.16 0 0 0 2.7.1 3.16 3.16 0 0 0 1.13-3.08zm-2.68 2.49a1 1 0 0 1-1-1.1c0-.91.41-1.59 1.37-1.65.7 0 1.1.39 1 1.14s-.65 1.68-1.37 1.61zm82.99-.96h2.27c.75 0 1-.35.92-1a1.8 1.8 0 0 0-1.11-1.69 2.91 2.91 0 0 0-3.91 3.12 1.64 1.64 0 0 0 1.34 1.48 2.78 2.78 0 0 0 3.06-1.05.87.87 0 0 0-1.29-.06 1.18 1.18 0 0 1-1.54 0 .66.66 0 0 1-.31-.61c.06-.29.36-.19.57-.19zm.52-1.87a1 1 0 0 1 1.19.27c.1.14.18.42.1.54-.23.36-.64.17-1 .18a2.08 2.08 0 0 1-1.15-.11 1 1 0 0 1 .9-.88zm-25.16 1.88a5.12 5.12 0 0 1 1 0c1.94 0 1.94 0 1.94-.91a1.89 1.89 0 0 0-2.06-2 4 4 0 0 0-.6 0 3 3 0 0 0-2.35 2.39 1.83 1.83 0 0 0 .83 2.16 2.72 2.72 0 0 0 3-.27c.21-.15.67-.32.36-.69a.58.58 0 0 0-.85-.11 1.63 1.63 0 0 1-1.19.45c-.45 0-.91-.25-.9-.77s.53-.19.82-.25zm.33-1.91a1 1 0 0 1 1.08.28c.1.15.19.42.12.54-.21.39-.62.17-.95.2s-.77 0-1.28 0c.27-.65.59-.93 1.03-1.02zm-15.96 1.9h2.27c.75 0 1-.33.93-1a1.8 1.8 0 0 0-1.1-1.69 2.91 2.91 0 0 0-3.93 3.1 1.65 1.65 0 0 0 1.34 1.49 2.8 2.8 0 0 0 3.07-1.05.88.88 0 0 0-1.28-.07 1.19 1.19 0 0 1-1.54.06.67.67 0 0 1-.32-.61c.05-.33.39-.23.56-.23zm.71-1.91c.49-.06 1.05 0 1.11.58.08.76-.58.39-.92.44a9 9 0 0 1-1.3 0c.23-.66.6-.96 1.11-1.02zm-70.5 1.92a7.79 7.79 0 0 1 1.08 0 5.75 5.75 0 0 1 .83 0c1.09.18 1.21-.47 1.07-1.28a2 2 0 0 0-2.53-1.57 3 3 0 0 0-2.43 2.3 1.87 1.87 0 0 0 .72 2.21 2.69 2.69 0 0 0 3-.16c.25-.17.69-.37.51-.67a.64.64 0 0 0-1-.12 1.35 1.35 0 0 1-1.33.33c-.36-.11-.68-.33-.66-.74s.48-.27.74-.3zm.73-1.94c.5 0 1 .18.92.69-.09.76-.78.16-1.12.4-.35-.17-1 .25-1-.31s.62-.78 1.2-.78zM168 123.46h1.91c1.1 0 1.36-.38 1.07-1.47a1.88 1.88 0 0 0-1.14-1.28 3 3 0 0 0-3.43 1.28 2.41 2.41 0 0 0 .23 3 2.92 2.92 0 0 0 3.51-.35 2.64 2.64 0 0 0 .29-.35.87.87 0 0 0-1.3-.07 1.19 1.19 0 0 1-1.35.16c-.29-.15-.55-.38-.48-.74s.45-.18.69-.18zm.78-1.94c.49 0 1 .18.91.69-.08.76-.78.16-1.12.4-.35-.17-1 .25-1-.31s.62-.78 1.21-.78zm76.52-.69a3.28 3.28 0 0 0-3 .2c-.29.14-.27.35-.17.59s.23.36.54.2a2.11 2.11 0 0 1 1.14-.3c.42 0 .87 0 .87.57 0 .73-.53.32-.76.35h-.45a2.17 2.17 0 0 0-2.06 1.18 1.17 1.17 0 0 0 .2 1.44 1.84 1.84 0 0 0 2.32 0c.38-.22.52-.11.76.16a.73.73 0 0 0 .89.1.59.59 0 0 0 .24-.82c-.31-.59 0-1.1.07-1.62.11-.77.31-1.59-.59-2.05zm-2 3.71c-.35 0-.78-.09-.72-.57.07-.64.56-.78 1.16-.76.26.08.79-.17.75.41s-.66.87-1.22.92zm-67.25-2.39a1.37 1.37 0 0 0-.57-1.25 3.57 3.57 0 0 0-3.2.15c-.25.22-.17.41-.08.63s.35.21.57.11a2.41 2.41 0 0 1 1.15-.27c.45 0 .85.1.81.63s-.51.28-.73.3h-.32a2.3 2.3 0 0 0-2.21 1.14 1.18 1.18 0 0 0 .15 1.45 1.83 1.83 0 0 0 2.41.06c.46-.28.5.13.74.24.51.21 1.17.31 1.09-.5a11.88 11.88 0 0 1 .19-2.69zm-2.81 2.39c-.34 0-.77-.13-.67-.62.15-.69.71-.75 1.43-.69.16 0 .59-.06.49.45s-.68.84-1.25.86zm110.08-3.95a3 3 0 0 0-3.07 2.83 1.94 1.94 0 0 0 2.12 2 3 3 0 0 0 3-2.89 1.91 1.91 0 0 0-2.05-1.94zm-.72 3.81c-.69.07-1-.42-1-1.05a1.62 1.62 0 0 1 1.49-1.7 1 1 0 0 1 .94 1.14 1.5 1.5 0 0 1-1.43 1.61zm-86.08-3.81a3 3 0 0 0-3 2.88 2 2 0 0 0 2.17 2 3 3 0 0 0 2.94-2.94 1.92 1.92 0 0 0-2.11-1.94zm-.73 3.81c-.7 0-1-.49-.94-1.12.06-.88.48-1.56 1.43-1.61.73 0 1 .47 1 1.19-.11.89-.55 1.51-1.49 1.54zm6.21-3.81a3 3 0 0 0-3 2.87 2 2 0 0 0 2.16 2 3 3 0 0 0 3-2.93 1.91 1.91 0 0 0-2.16-1.94zm-.68 3.81c-.7.06-1-.42-1-1.06a1.62 1.62 0 0 1 1.5-1.69 1 1 0 0 1 .93 1.15 1.5 1.5 0 0 1-1.39 1.6z" class="H"/><path d="M295.53 108.42a3.87 3.87 0 0 1 0-.59c.06-.36-.23-.85.21-1.07a1.39 1.39 0 0 1 1.34.26c.83.55.74 1.43.55 2.25s-.89.93-1.57 1c-.42 0-.55-.18-.54-.56l.01-1.29zm-124.14-.01a2.9 2.9 0 0 1 0-.59c.06-.36-.24-.85.22-1.06a1.41 1.41 0 0 1 1.39.24 1.91 1.91 0 0 1 .53 2.26c-.2.77-.89.93-1.58 1-.43 0-.54-.2-.52-.58s-.04-.83-.04-1.27z" fill="#f09424"/><path d="M191.24 110.29a1.8 1.8 0 1 1 1.69-1.77 1.73 1.73 0 0 1-1.69 1.77zm91.76-1.83a1.74 1.74 0 0 1-1.62 1.83 1.8 1.8 0 1 1 1.62-1.83z" fill="#f09322"/><path d="M220.65 106.46c.55.09.86.32.87.92a.83.83 0 0 1-.91 1c-.67 0-.36-.59-.36-.9s-.25-.95.4-1.02z" fill="#f09425"/><path d="M304.13,109.3h-1.65l.81-2.71Z" fill="#f09525"/><path d="M160.61 107.48c0-.5 0-.84.53-.78s.73.28.7.77-.37.65-.8.66-.4-.45-.43-.65z" fill="#f0972c"/><path d="M105 7.19v-.52-.52l.06-.52c.06-.37.2-.73.27-1.1a1.46 1.46 0 0 0 .19-.42l.09-.2a2.93 2.93 0 0 0 .21-.39 11.25 11.25 0 0 1 .75-1.06.16.16 0 0 0 .09-.09l.38-.39a.15.15 0 0 0 .1-.09l1.06-.75a1.54 1.54 0 0 0 .31-.17l.27-.12.43-.18a8.92 8.92 0 0 1 1.13-.29l.48-.06h.53.51l.64.09h.11l.34.08.37.1.65.25h.09a1.88 1.88 0 0 0 .44.24l.47.29.18.13a2.18 2.18 0 0 0 .34.26l.27.24a1.2 1.2 0 0 0 .28.27l.24.27.28.37.06.07q.32.51.6 1l.21.52a1.21 1.21 0 0 0 .18.49 0 0 0 0 0 0 0 1.19 1.19 0 0 0 .09.53 4.09 4.09 0 0 0 .07.6v.45.53a1 1 0 0 0 0 .24v.09c-.05.06 0 .12 0 .19a7.78 7.78 0 0 1-.3 1.15c0 .13-.1.22-.12.34a9.58 9.58 0 0 1-.63 1.13h0v.07h0l-.34.42a.54.54 0 0 0-.15.18 1.82 1.82 0 0 0-.31.31.56.56 0 0 0-.18.16l-.42.33a.28.28 0 0 0-.14.1 9.07 9.07 0 0 1-1 .59l-.4.16a7.37 7.37 0 0 1-1.31.32.4.4 0 0 1-.32 0h-.59-.56a.22.22 0 0 0-.14 0 3 3 0 0 0-.52 0 .77.77 0 0 1-.15 0 3 3 0 0 0-.71-.19l-.71-.29a.72.72 0 0 0-.2-.09l-.42-.23a1.49 1.49 0 0 0-.31-.2.68.68 0 0 0-.23-.14 1.61 1.61 0 0 0-.37-.32l-.26-.24a1.85 1.85 0 0 0-.28-.28 1.21 1.21 0 0 0-.21-.24 1.54 1.54 0 0 0-.25-.32.4.4 0 0 0-.14-.18 4.62 4.62 0 0 0-.28-.48 1.36 1.36 0 0 0-.21-.37v-.16l-.21-.53-.16-.51a1.07 1.07 0 0 0-.06-.32v.07h0v-.11a3.53 3.53 0 0 0-.18-.56zm.86.88a0 0 0 0 0 0 0 .11.11 0 0 0 0 .11 4.21 4.21 0 0 0 .44 1.13 1.52 1.52 0 0 0 .24.41v.07a2.27 2.27 0 0 0 .39.53l.06.07a4.71 4.71 0 0 0 1 .95.44.44 0 0 0 .16.1 1.55 1.55 0 0 0 .41.25 4.32 4.32 0 0 0 1.09.45.68.68 0 0 0 .28.07 2.54 2.54 0 0 0 .77.13h.11.17.25a2.15 2.15 0 0 0 .56 0h.13a2.25 2.25 0 0 0 .36-.06 2.41 2.41 0 0 0 .59-.14 3.79 3.79 0 0 0 1-.39 5 5 0 0 0 1.61-1.23.58.58 0 0 0 .18-.2 4.75 4.75 0 0 0 .7-1.06 2.75 2.75 0 0 0 .28-.63 3.71 3.71 0 0 0 .24-.94 1.35 1.35 0 0 0 .07-.49 1.76 1.76 0 0 0 0-.56v-.22-.14-.14a1.81 1.81 0 0 0-.07-.52 2.42 2.42 0 0 0-.13-.53 3.37 3.37 0 0 0-.45-1 1.11 1.11 0 0 0-.25-.45l-.07-.11-.23-.32a5.07 5.07 0 0 0-1.35-1.22l-.07-.05a1.89 1.89 0 0 0-.46-.26 4.35 4.35 0 0 0-1-.42l-.42-.1a0 0 0 0 0 0 0h-.07a1.79 1.79 0 0 0-.56-.07h-.16c-.1-.07-.2 0-.3 0a1.77 1.77 0 0 0-.56 0h-.07a0 0 0 0 0 0 0l-.42.07a3.14 3.14 0 0 0-.67.17.58.58 0 0 0-.25.09 2.9 2.9 0 0 0-.57.25h-.09a2.18 2.18 0 0 0-.46.28 4.3 4.3 0 0 0-.69.52 4.68 4.68 0 0 0-1 1.13 1.89 1.89 0 0 0-.28.45 1.59 1.59 0 0 0-.18.4l-.12.26a1.46 1.46 0 0 0-.12.39 2.44 2.44 0 0 0-.14.53v.1a.85.85 0 0 0 0 .32h0v.07a2.13 2.13 0 0 0 0 .56 1.34 1.34 0 0 0 0 .49 1.88 1.88 0 0 0 .07.53v.07a0 0 0 0 0 0 0 1 1 0 0 0 .05.3zm8.14 2.21h-1c-.08 0-.1-.06-.12-.12s-.15-.32-.22-.48a1.12 1.12 0 0 0-.11-.25l-.06-.14a2.26 2.26 0 0 0-.19-.42 10 10 0 0 0-.44-1 .7.7 0 0 0-.33-.35h0a.92.92 0 0 0-.64-.18h-.14c-.13 0-.08.08-.09.15v1.88.75c0 .25 0 .16-.15.16h-1.19V3.55a2.25 2.25 0 0 0 0-.26c0-.13 0-.17.17-.16h1.18a8.75 8.75 0 0 1 1.62.07c.07 0 .08 0 .11-.06a.14.14 0 0 0 .1.1c.17 0 .33.1.5.15a1.7 1.7 0 0 1 .91 1v.17a2.15 2.15 0 0 1-.22 1.61l-.24.28-.35.25h-.07l-.58.19a1.07 1.07 0 0 1 .6.5l.29.5a.46.46 0 0 0 .11.22.36.36 0 0 0 .07.17 1.47 1.47 0 0 0 .14.28.24.24 0 0 0 .07.13h0l.53 1.12.2.46zm-1.49-5.08v-.11c0-.1 0-.21-.1-.28a.48.48 0 0 0-.17-.29 1.15 1.15 0 0 0-.57-.23h-1s-.06 0 0 0a1 1 0 0 0 0 .34v.53 1c0 .06 0 .13.08.13a3.06 3.06 0 0 0 1.2-.13c.15-.12.37-.14.46-.34a.72.72 0 0 0 .17-.39V5.2z" class="F"/></svg>